<?xml version="1.0" encoding="UTF-8" standalone="no"?>
<svg
   xmlns:dc="http://purl.org/dc/elements/1.1/"
   xmlns:cc="http://creativecommons.org/ns#"
   xmlns:rdf="http://www.w3.org/1999/02/22-rdf-syntax-ns#"
   xmlns:svg="http://www.w3.org/2000/svg"
   xmlns="http://www.w3.org/2000/svg"
   xmlns:sodipodi="http://sodipodi.sourceforge.net/DTD/sodipodi-0.dtd"
   xmlns:inkscape="http://www.inkscape.org/namespaces/inkscape"
   sodipodi:docname="bull.svg"
   inkscape:version="1.0 (6e3e5246a0, 2020-05-07)"
   id="svg8"
   version="1.1"
   viewBox="0 0 210 297"
   height="297mm"
   width="210mm">
  <defs
     id="defs2" />
  <sodipodi:namedview
     inkscape:document-rotation="0"
     inkscape:window-maximized="1"
     inkscape:window-y="-10"
     inkscape:window-x="0"
     inkscape:window-height="1053"
     inkscape:window-width="1920"
     showgrid="false"
     inkscape:current-layer="g59"
     inkscape:document-units="mm"
     inkscape:cy="364.50134"
     inkscape:cx="388.65465"
     inkscape:zoom="0.49497475"
     inkscape:pageshadow="2"
     inkscape:pageopacity="0.0"
     borderopacity="1.0"
     bordercolor="#666666"
     pagecolor="#ffffff"
     id="base" />
  <metadata
     id="metadata5">
    <rdf:RDF>
      <cc:Work
         rdf:about="">
        <dc:format>image/svg+xml</dc:format>
        <dc:type
           rdf:resource="http://purl.org/dc/dcmitype/StillImage" />
        <dc:title />
      </cc:Work>
    </rdf:RDF>
  </metadata>
  <g
     id="layer1"
     inkscape:groupmode="layer"
     inkscape:label="Layer 1">
    <g
       id="g55"
       inkscape:label="output"
       transform="matrix(0.35277777,0,0,0.35277777,12.059979,33.71855)">
      <g
         id="g57">
        <g
           id="g59">
          <path
             sodipodi:nodetypes="ccccccccccccccccccccccccccccccccccccccccccccccccccsccccccccccccccccccccccccccccccccc"
             inkscape:export-ydpi="96"
             inkscape:export-xdpi="96"
             inkscape:connector-curvature="0"
             id="path195"
             d="M 443.12361,-56.177877 378.20174,47.055521 348.25594,-27.295552 320.55721,76.340682 C 182.37084,85.812975 107.32508,184.3231 7.600656,314.31334 c 29.137001,43.98 22.495971,44.67615 89.167969,117.84815 l 264.897955,-55.36377 98.11378,170.28223 c 2.148,-159.282 41.59717,-361.43409 41.59717,-361.43409 l -50.96778,-72.69873 z m -5.10204,19.959961 4.73877,143.655766 -69.73096,-30.667973 z M 348.21346,-8.9791475 374.2994,53.922709 365.65535,73.69664 331.42342,72.829452 c 2.743,-9.164003 16.79004,-81.8085995 16.79004,-81.8085995 z M 356.58065,85.911972 381.81111,256.64977 274.85585,94.900629 Z m 12.72216,0.795406 71.00098,32.582522 -49.06641,137.74219 c 0,-4.996 -21.93457,-170.324712 -21.93457,-170.324712 z M 221.83846,121.98961 c 0,0 -4.60093,8.77273 -12.37794,24.32373 -3.88699,7.773 -8.57214,17.24216 -13.86913,28.16016 -5.29601,10.914 -11.20956,23.27403 -17.56056,36.83203 -6.35199,13.559 -13.13747,28.30823 -20.18847,44.01123 -7.046,15.699 -14.35128,32.3449 -21.73828,49.69189 -7.387,17.34401 -14.85508,35.38749 -22.22608,53.8755 -3.684,9.246 -7.34442,18.60597 -10.96142,28.04296 -3.614005,9.438 -7.18018,18.95644 -10.680183,28.52344 l -43.624508,-51.35596 1.894042,-42.6958 c 6.434003,-9.902 12.734626,-19.34326 18.890626,-28.34326 6.159997,-9.004 12.172155,-17.56554 18.035153,-25.70655 5.864002,-8.14099 11.571097,-15.85975 17.1211,-23.17675 5.551,-7.316 10.94655,-14.23023 16.16455,-20.76123 5.223,-6.53201 10.27773,-12.67604 15.15674,-18.45704 4.879,-5.78199 9.57826,-11.19562 14.09326,-16.26562 4.52,-5.07 8.85177,-9.78909 12.98877,-14.18409 4.14,-4.39399 8.08554,-8.46086 11.83154,-12.21386 3.746,-3.758 7.28998,-7.20337 10.62598,-10.35937 3.332,-3.156 6.45621,-6.02368 9.36621,-8.61768 5.812,-5.188 10.75762,-9.28531 14.76562,-12.44532 4.011,-3.15699 7.08235,-5.37859 9.15235,-6.80859 2.07,-1.43 3.14063,-2.06982 3.14063,-2.06982 z m 57.37015,3.5804 102.72702,144.50505 -185.06105,-77.50781 z m 174.12204,5.36101 38.39063,55.80029 -31.30079,224.47999 z m -7.76514,5.17529 7.58496,376.69043 -57.27978,-240.83936 z m -256.79297,-3.94043 c -52.305,47.781 -129.676769,168.95948 -129.676769,168.95948 l -33.077634,6.4497 c 0,0 59.899398,-97.01918 162.754403,-175.40918 z m 5.10204,69.40137 180.15089,75.22559 -266.35841,140.15771 c 28.43702,-111.9419 86.20752,-215.3833 86.20752,-215.3833 z m 190.99513,81.88769 -26.20313,84.34278 -235.39454,50.98828 z m 5.18701,8.44923 12.75,66.13183 -34.44873,7.89111 c 1.078,-3.129 21.69873,-74.02294 21.69873,-74.02294 z m 15.81006,75.71044 32.21485,128.03907 c -1.97301,-1.563 -65.2544,-120.09082 -65.2544,-120.09082 z"
             style="fill:#000000;stroke:#000000;stroke-width:0.749999;stroke-linecap:butt;stroke-linejoin:miter;stroke-miterlimit:4;stroke-dasharray:none;stroke-opacity:1" />
        </g>
      </g>
    </g>
  </g>
</svg>
